<?xml version="1.0" encoding="UTF-8"?>
<svg width="1280" height="640" viewBox="0 0 1280 640" fill="none" xmlns="http://www.w3.org/2000/svg" role="img" aria-label="Bridge47 Code Generator cover image">
  <defs>
    <linearGradient id="bg" x1="0" y1="0" x2="1280" y2="640" gradientUnits="userSpaceOnUse">
      <stop stop-color="#0B1020"/>
      <stop offset="0.55" stop-color="#121B35"/>
      <stop offset="1" stop-color="#0B1020"/>
    </linearGradient>

    <radialGradient id="glow" cx="0" cy="0" r="1" gradientUnits="userSpaceOnUse" gradientTransform="translate(920 140) rotate(135) scale(520 420)">
      <stop stop-color="#7C3AED" stop-opacity="0.45"/>
      <stop offset="0.55" stop-color="#22D3EE" stop-opacity="0.18"/>
      <stop offset="1" stop-color="#22D3EE" stop-opacity="0"/>
    </radialGradient>

    <linearGradient id="accent" x1="0" y1="0" x2="1" y2="1">
      <stop stop-color="#22D3EE"/>
      <stop offset="0.55" stop-color="#7C3AED"/>
      <stop offset="1" stop-color="#F97316"/>
    </linearGradient>

    <filter id="shadow" x="-20%" y="-20%" width="140%" height="140%" color-interpolation-filters="sRGB">
      <feDropShadow dx="0" dy="14" stdDeviation="18" flood-color="#000000" flood-opacity="0.45"/>
    </filter>

    <filter id="softGlow" x="-40%" y="-40%" width="180%" height="180%" color-interpolation-filters="sRGB">
      <feGaussianBlur stdDeviation="18" result="blur"/>
      <feColorMatrix in="blur" type="matrix"
        values="1 0 0 0 0
                0 1 0 0 0
                0 0 1 0 0
                0 0 0 0.30 0"/>
      <feMerge>
        <feMergeNode/>
        <feMergeNode in="SourceGraphic"/>
      </feMerge>
    </filter>

    <pattern id="grid" width="48" height="48" patternUnits="userSpaceOnUse">
      <path d="M 48 0 L 0 0 0 48" stroke="#94A3B8" stroke-opacity="0.10" stroke-width="1"/>
    </pattern>
  </defs>

  <!-- Background -->
  <rect width="1280" height="640" fill="url(#bg)"/>
  <rect width="1280" height="640" fill="url(#grid)"/>
  <rect width="1280" height="640" fill="url(#glow)"/>

  <!-- Decorative arcs -->
  <g opacity="0.65" filter="url(#softGlow)">
    <path d="M-40 520 C 260 320, 540 720, 880 520" stroke="url(#accent)" stroke-opacity="0.55" stroke-width="6" fill="none"/>
    <path d="M380 40 C 680 -70, 900 250, 1240 120" stroke="url(#accent)" stroke-opacity="0.35" stroke-width="5" fill="none"/>
  </g>

  <!-- Main card -->
  <g filter="url(#shadow)">
    <rect x="96" y="132" width="1088" height="376" rx="28" fill="#0B1224" fill-opacity="0.72" stroke="#94A3B8" stroke-opacity="0.16"/>

    <!-- Left icon block -->
    <g transform="translate(150 206)">
      <rect x="0" y="0" width="220" height="220" rx="24" fill="#0F1A33" stroke="#94A3B8" stroke-opacity="0.18"/>

      <!-- Database cylinder (simple, generic) -->
      <g transform="translate(44 38)">
        <ellipse cx="66" cy="22" rx="66" ry="20" fill="#0B1020" stroke="#22D3EE" stroke-opacity="0.8" stroke-width="3"/>
        <path d="M0 22 V112 C0 126 30 138 66 138 C102 138 132 126 132 112 V22" fill="#0B1020" fill-opacity="0.15" stroke="#22D3EE" stroke-opacity="0.55" stroke-width="3"/>
        <path d="M0 62 C0 76 30 88 66 88 C102 88 132 76 132 62" stroke="#7C3AED" stroke-opacity="0.55" stroke-width="3" fill="none"/>
        <path d="M0 98 C0 112 30 124 66 124 C102 124 132 112 132 98" stroke="#F97316" stroke-opacity="0.45" stroke-width="3" fill="none"/>
      </g>

      <!-- Code brackets -->
      <g transform="translate(18 156)" opacity="0.95">
        <path d="M28 10 L10 32 L28 54" stroke="#E2E8F0" stroke-opacity="0.9" stroke-width="4" stroke-linecap="round" stroke-linejoin="round"/>
        <path d="M154 10 L172 32 L154 54" stroke="#E2E8F0" stroke-opacity="0.9" stroke-width="4" stroke-linecap="round" stroke-linejoin="round"/>
        <path d="M86 6 L66 58" stroke="url(#accent)" stroke-width="4" stroke-linecap="round"/>
      </g>

      <text x="110" y="206" text-anchor="middle" font-family="ui-sans-serif, system-ui, -apple-system, Segoe UI, Roboto, Helvetica, Arial" font-size="14" fill="#94A3B8" opacity="0.9">
        DB → Full Stack
      </text>
    </g>

    <!-- Title and copy -->
    <g transform="translate(420 220)">
      <text x="0" y="0" font-family="ui-sans-serif, system-ui, -apple-system, Segoe UI, Roboto, Helvetica, Arial" font-size="56" font-weight="800" fill="#E2E8F0" letter-spacing="-0.5">
        Bridge47
      </text>
      <text x="0" y="56" font-family="ui-sans-serif, system-ui, -apple-system, Segoe UI, Roboto, Helvetica, Arial" font-size="22" fill="#CBD5E1" opacity="0.92">
        Database-first code generator for NestJS + Quasar
      </text>

      <!-- Pills -->
      <g transform="translate(0 92)">
        <g>
          <rect x="0" y="0" width="190" height="38" rx="19" fill="#0F1A33" stroke="#22D3EE" stroke-opacity="0.35"/>
          <text x="18" y="25" font-family="ui-sans-serif, system-ui, -apple-system, Segoe UI, Roboto, Helvetica, Arial" font-size="16" fill="#E2E8F0">MySQL Schema</text>
        </g>
        <g transform="translate(205 0)">
          <rect x="0" y="0" width="190" height="38" rx="19" fill="#0F1A33" stroke="#7C3AED" stroke-opacity="0.35"/>
          <text x="18" y="25" font-family="ui-sans-serif, system-ui, -apple-system, Segoe UI, Roboto, Helvetica, Arial" font-size="16" fill="#E2E8F0">NestJS Backend</text>
        </g>
        <g transform="translate(410 0)">
          <rect x="0" y="0" width="210" height="38" rx="19" fill="#0F1A33" stroke="#F97316" stroke-opacity="0.35"/>
          <text x="18" y="25" font-family="ui-sans-serif, system-ui, -apple-system, Segoe UI, Roboto, Helvetica, Arial" font-size="16" fill="#E2E8F0">Quasar Frontend</text>
        </g>
      </g>

      <text x="0" y="178" font-family="ui-monospace, SFMono-Regular, Menlo, Monaco, Consolas, Liberation Mono, monospace" font-size="16" fill="#94A3B8" opacity="0.9">
        Generates entities • DTOs • services • modules • pages
      </text>
    </g>

    <!-- Small corner mark -->
    <g transform="translate(1088 166)" opacity="0.85">
      <path d="M0 18 C18 -2, 44 -2, 62 18 C80 38, 62 64, 34 62" stroke="url(#accent)" stroke-width="4" fill="none" stroke-linecap="round"/>
      <circle cx="66" cy="22" r="6" fill="#22D3EE"/>
    </g>
  </g>

  <!-- Footer -->
  <text x="96" y="600" font-family="ui-sans-serif, system-ui, -apple-system, Segoe UI, Roboto, Helvetica, Arial" font-size="14" fill="#94A3B8" opacity="0.9">
    bridge47 • code-generator
  </text>
</svg>
